<svg id="Layer_1" data-name="Layer 1" xmlns="http://www.w3.org/2000/svg" xmlns:xlink="http://www.w3.org/1999/xlink" viewBox="0 0 421.95 538.37"  width="133" height="170"><defs><style>.cls-1{fill:none;}.cls-2{clip-path:url(#clip-path);}.cls-3{fill:#fff;}.cls-3,.cls-4,.cls-5,.cls-6,.cls-9{fill-rule:evenodd;}.cls-4{fill:#f8cbad;}.cls-5{fill:#d9b598;}.cls-6{fill:#7bc9d2;}.cls-7{opacity:0.99;isolation:isolate;}.cls-8{clip-path:url(#clip-path-3);}.cls-9{fill:#010101;}</style><clipPath id="clip-path"><rect class="cls-1" x="-79.57" y="-140.66" width="595.28" height="841.89"/></clipPath><clipPath id="clip-path-3"><rect class="cls-1" width="421.95" height="538.37"/></clipPath></defs><title>Artboard 1</title><g class="cls-2"><polygon class="cls-3" points="4 538.37 417.12 538.3 393.18 384.88 380.06 372.37 329.96 351.35 307.06 308.37 245.81 357.71 165.26 294.97 138.24 333.67 28.46 394.69 4 538.37"/><polygon class="cls-4" points="239.15 357.71 167.06 290.19 102.28 230.37 102.28 120.02 202.06 77.37 300.45 99.37 322.07 114.37 359.58 154.37 374.67 185.37 380.06 217.54 370.06 244.77 355.42 269.18 322.07 290.19 300.45 302.57 307.06 308.37 239.15 357.71"/><polygon class="cls-5" points="176.96 294.97 303.86 294.97 307.06 308.37 245.81 357.71 171.06 300.18 176.96 294.97"/><polygon class="cls-6" points="188.26 222.47 265.89 238.76 355.42 238.76 348.56 273.5 311.96 290.19 172.6 290.19 150.32 274.74 169.33 238.76 188.26 222.47"/><g class="cls-2"><g class="cls-7"><g class="cls-8"><path class="cls-9" d="M287.92,1.32c1.47,2.62,4.19,11.64,6,20s4.76,15.18,6.52,15.18,10.39-3.61,35.16-16l-.13,8.79a200.28,200.28,0,0,1-2.4,22.31c-1.25,7.45-1.92,13.55-1.47,13.58s4.76-2.59,9.59-5.82,10.58-6.81,12.79-8c2.43-1.28,3.39-.54,2.43,1.89-.83,2.21-5.85,18.38-20.74,67.92L351.63,138c8.76,9.24,19.53,24.32,23.91,33.56,5.94,12.53,8,22.05,8,37.56,0,14.93-2.08,25.28-7.35,36.76a141.62,141.62,0,0,1-18.7,28.77c-8.21,9.27-16.27,14.32-29.37,18.38-9.91,3.07-18,6.68-18,8s5.43,11.57,12,22.79c11.7,20,12.53,20.65,42,33.56,18.12,7.93,32.28,16.33,35.67,21.16,4.19,5.94,7.77,26.43,13.94,79.91,4.57,39.54,8.28,73.71,8.28,75.91s-2.2,4-4.83,4-4.8-1.79-4.8-4S408.55,498.67,404,460s-9.43-72.49-10.8-75.11c-2-3.87-3.29-3.26-6.84,3.2-3.26,5.95-4.57,26.14-5.18,79.11-.67,60.73-1.5,71.12-5.59,71.12s-4.76-9.62-4.67-67.92c.13-50.79,1.31-71.15,4.76-80.71,2.52-7,4.64-13.14,4.64-13.58s-8.21-4.54-18.32-9.14-21.26-9.49-24.77-10.93c-5.12-2.11-12.72,2.4-38.36,22.7-26.08,20.68-32.54,24.48-35.16,20.68-1.76-2.59-3.93-4.76-4.79-4.89s-4.12,5.21-7.19,11.86c-5.53,12-5.47,12.5,22.25,130.35l-33.88.8c-18.67.42-34.2.42-34.58,0s6.3-27.42,30.2-119.06l-12.75-25.57-12.34,16-69.94-70.32L45.2,386.48l9.36,10.39c8.66,9.59,9.37,12.27,9.37,35.16,0,13.62,1.09,43.12,2.4,65.52,2.08,35.19,1.73,40.79-2.4,40.79-3.9,0-5.24-7.74-7.19-40.79-1.31-22.41-2.37-51.17-2.4-63.92,0-20.46-.93-24.1-8-31.17-4.41-4.41-9.08-8.05-10.39-8.12s-4.09,3.9-6.14,8.79-5.37,22.57-7.32,39.28-6,45.13-9,63.19C9.91,526.89,6.58,538.4,4,538.37c-2.21,0-4-1.5-4-3.26s2.78-21.54,6.2-43.95,7.32-51.56,8.63-64.73c1.6-15.73,4.7-27.26,9-33.56,4.73-6.9,21.93-17.39,61.69-37.56,54.75-27.78,55.2-28.1,75.91-63.83l-9.59-7.32c-5.27-4.06-20.58-17.9-58.4-54.31L87.9,193.1c-5.43-36.15-5.4-37.27,8-99.09h11.19c11.16,0,11.19-.06,19.56-40l23.78-8.69c22.25-8.12,26-8.53,58.94-6.74,22.69,1.25,39.41.64,47.15-1.69,10.29-3.13,13.17-6.26,20.36-22,6.23-13.74,9-17.16,11.06-13.58M167.33,142.86c-3.8,9.17-8,23.88-9.24,32.67-2.08,14.1-1.28,18,6.87,32.86,5.08,9.3,10.32,16.85,11.63,16.78s2.4-1.53,2.4-3.29,3.23-3.16,7.19-3.13,18,2.88,31.16,6.33,29.37,6.3,36,6.33c11.19.06,12-.58,12-9.53,0-5.27-3-15.7-6.74-23.17S248,181.15,243.37,176.29c-6.74-7-7.64-9.59-4.44-12.78s4.79-3.16,8,0,5.43,2.52,11.19-3.2c3.93-3.93,8.25-6,9.59-4.63s-.13,6.74-3.2,12c-5.43,9.21-5.37,9.91,2.43,26.24,4.73,9.88,8,22.37,8,30.36l0,13.58c33.43,1,46.73,1,51.14.8l25.09-1.44c13.3-.73,17.84-2.4,20.33-7.35,1.79-3.52,3.26-13.58,3.23-22.37,0-9.3-2.81-22.31-6.74-31.16-3.71-8.34-13.59-22.5-21.93-31.45l-15.18-16.24c-46.7,4-55,3.26-73.52-2.27-12.3-3.67-28.13-6.52-35.16-6.33a284.79,284.79,0,0,0-30.36,3.26c-17.39,2.88-17.64,3.07-24.45,19.56m-45.87,63c3.52,7,8.53,12.79,11.19,12.79,3.1,0,4.76,3.07,4.73,8.79s3.45,12.27,9.56,18.38c5.27,5.27,10.1,8.85,10.64,8s4.19-5.56,8-10.39l7-8.79c-14.58-24.77-19.95-32-21.38-32s-7.26,1.44-13,3.2c-9.78,3-10.61,2.62-14.38-6.52-2.21-5.34-5.08-9.65-6.39-9.59s-2.4.83-2.4,1.73,2.88,7.35,6.39,14.38M178,237.37c-5.66,8.18-12.59,18.44-15.44,22.85-5.05,7.8-4.89,8.18,5.63,15.18a101.21,101.21,0,0,0,24.42,10.9c7.48,2,33.72,3.77,58.33,3.87,37.59.16,48.58-1,68.72-7,13.17-4,22.92-8.25,21.61-9.49s-1.12-3.71.42-5.47,3.74-7.51,4.86-12.79l2-9.59c-64.41,0-85.73-1.57-91.26-3.74-5.27-2-16.08-5.34-24-7.32s-21.29-5.56-29.73-8l-15.34-4.35Zm-38.23,23.56c3.13,3,6.78,5.56,8.09,5.59s2.43-1.69,2.49-3.9-3.61-7.61-8.09-12c-7.64-7.48-8.15-7.58-8.18-1.6,0,3.52,2.56,8.89,5.69,11.89m215.85-2.27c.45.9,1.69-.54,2.78-3.2s1.53-4.83,1-4.83-1.82,1.44-2.78,3.2-1.41,3.93-1,4.83M185.39,301.78c45.83,37.14,59.83,47.91,60.73,47.91s13.46-10.07,28-22.34,26.37-23.46,26.37-24.77-20.49-2.4-45.55-2.4-50.95.35-57.53.8Zm-30,18.38-5.18,10.39C174.58,359,187.88,373.47,195.52,381l13.84,13.71,29.79-37c-52.42-42.13-68.62-54.75-69.78-55.23s-3.64.93-5.47,3.2-5.62,8.76-8.5,14.48m99.34,35.45c-1.41,1.18.77,9,4.79,17.36s8.44,15.21,9.75,15.18,13.55-8.95,27.17-19.82,25.12-20.23,25.57-20.78-2.81-8.21-7.19-17-8.57-16-9.27-16S293.71,323.32,280.8,334s-24.65,20.42-26.05,21.57M92.69,452l91.1-.06-2.43,20c-1.31,11-2.4,30.43-2.37,66.35L170.2,538c-4.83-.13-7-.86-4.79-1.6,2.81-.93,4-9.94,4-58.88H102.28v27.17c0,22.57,1,27.68,5.59,30.27s3.64,3.1-15.18,3.29Zm43.15,16c19.18,0,34.23-1.37,35.16-3.2,1-2-11.19-3.2-33.56-3.2-21.32,0-35.16,1.25-35.16,3.2s13.33,3.2,33.56,3.2"/></g></g></g></g></svg>
