<svg xmlns="http://www.w3.org/2000/svg" viewBox="0 0 133 170" width="133" height="170">
	<style>
		tspan { white-space:pre }
		.shp0 { opacity: 0.988;fill: #000000 } 
	</style>
	<path id="Path 0" fill-rule="evenodd" class="shp0" d="M90.08 1C90.54 1.82 91.39 4.64 91.96 7.25C92.53 9.86 93.45 12 94 12C94.55 12 97.25 10.87 105 7L104.96 9.75C104.93 11.26 104.59 14.4 104.21 16.73C103.82 19.06 103.61 20.97 103.75 20.98C103.89 20.99 105.24 20.17 106.75 19.16C108.26 18.15 110.06 17.03 110.75 16.66C111.51 16.26 111.81 16.49 111.51 17.25C111.25 17.94 109.68 23 105.02 38.5L110.01 43.75C112.75 46.64 116.12 51.36 117.49 54.25C119.35 58.17 119.98 61.15 119.98 66C119.98 70.67 119.33 73.91 117.68 77.5C116.41 80.25 113.78 84.3 111.83 86.5C109.26 89.4 106.74 90.98 102.64 92.25C99.54 93.21 97.01 94.34 97.02 94.75C97.03 95.16 98.72 98.37 100.77 101.88C104.43 108.13 104.69 108.34 113.9 112.38C119.57 114.86 124 117.49 125.06 119C126.37 120.86 127.49 127.27 129.42 144C130.85 156.37 132.01 167.06 132.01 167.75C132 168.44 131.32 169 130.5 169C129.67 169 129 168.44 129 167.75C129 167.06 127.82 156.6 126.39 144.5C124.96 132.4 123.44 121.82 123.01 121C122.39 119.79 121.98 119.98 120.87 122C119.85 123.86 119.44 130.18 119.25 146.75C119.04 165.75 118.78 169 117.5 169C116.21 169 116.01 165.99 116.04 147.75C116.08 131.86 116.45 125.49 117.53 122.5C118.32 120.3 118.98 118.39 118.98 118.25C118.99 118.11 116.41 116.83 113.25 115.39C110.09 113.96 106.6 112.42 105.5 111.97C103.9 111.31 101.52 112.72 93.5 119.07C85.34 125.54 83.32 126.73 82.5 125.54C81.95 124.73 81.27 124.05 81 124.01C80.72 123.97 79.71 125.64 78.75 127.72C77.02 131.47 77.04 131.63 85.71 168.5L75.11 168.75C69.27 168.88 64.41 168.88 64.29 168.75C64.18 168.61 66.26 160.17 73.74 131.5L69.75 123.5L65.89 128.5L44.01 106.5L14.14 121.5L17.07 124.75C19.78 127.75 20 128.59 20 135.75C20.01 140.01 20.34 149.24 20.75 156.25C21.4 167.26 21.29 169.01 20 169.01C18.78 169.01 18.36 166.59 17.75 156.25C17.34 149.24 17.01 140.24 17 136.25C17 129.85 16.71 128.71 14.5 126.5C13.12 125.12 11.66 123.98 11.25 123.96C10.84 123.94 9.97 125.18 9.33 126.71C8.68 128.24 7.65 133.77 7.04 139C6.42 144.22 5.15 153.12 4.21 158.77C3.1 165.43 2.06 169.03 1.25 169.02C0.56 169.01 0 168.55 0 168C0 167.45 0.87 161.26 1.94 154.25C3.01 147.24 4.23 138.12 4.64 134C5.14 129.08 6.11 125.47 7.45 123.5C8.93 121.34 14.31 118.06 26.75 111.75C43.88 103.06 44.02 102.96 50.5 91.78L47.5 89.49C45.85 88.22 41.06 83.89 29.23 72.5L27.5 61C25.8 49.69 25.81 49.34 30 30L33.5 30C36.99 30 37 29.98 39.62 17.5L47.06 14.78C54.02 12.24 55.21 12.11 65.5 12.67C72.6 13.06 77.83 12.87 80.25 12.14C83.47 11.16 84.37 10.18 86.62 5.25C88.57 0.95 89.45 -0.12 90.08 1ZM52.35 45.28C51.16 48.15 49.86 52.75 49.46 55.5C48.81 59.91 49.06 61.13 51.61 65.78C53.2 68.69 54.84 71.05 55.25 71.03C55.66 71.01 56 70.55 56 70C56 69.45 57.01 69.01 58.25 69.02C59.49 69.03 63.87 69.92 68 71C72.12 72.08 77.19 72.97 79.25 72.98C82.75 73 83 72.8 83 70C83 68.35 82.05 65.09 80.89 62.75C79.73 60.41 77.59 57.26 76.14 55.74C74.03 53.54 73.75 52.74 74.75 51.74C75.75 50.75 76.25 50.75 77.25 51.74C78.25 52.73 78.95 52.53 80.75 50.74C81.98 49.51 83.33 48.85 83.75 49.29C84.16 49.72 83.71 51.4 82.75 53.04C81.05 55.92 81.07 56.14 83.51 61.25C84.99 64.34 86.02 68.25 86.01 70.75L86 75C96.46 75.3 100.62 75.32 102 75.25C103.37 75.17 106.91 74.97 109.85 74.8C114.01 74.57 115.43 74.05 116.21 72.5C116.77 71.4 117.23 68.25 117.22 65.5C117.22 62.59 116.34 58.52 115.11 55.75C113.95 53.14 110.86 48.71 108.25 45.91L103.5 40.83C88.89 42.09 86.29 41.85 80.5 40.12C76.65 38.97 71.7 38.08 69.5 38.14C67.3 38.21 63.02 38.66 60 39.16C54.56 40.06 54.48 40.12 52.35 45.28ZM38 65C39.1 67.2 40.67 69 41.5 69C42.47 69 42.99 69.96 42.98 71.75C42.97 73.5 44.06 75.59 45.97 77.5C47.62 79.15 49.13 80.27 49.3 80C49.48 79.72 50.61 78.26 51.81 76.75L54 74C49.44 66.25 47.76 64 47.31 64C46.86 64 45.04 64.45 43.25 65C40.19 65.94 39.93 65.82 38.75 62.96C38.06 61.29 37.16 59.94 36.75 59.96C36.34 59.98 36 60.22 36 60.5C36 60.77 36.9 62.8 38 65ZM55.68 74.85C53.91 77.41 51.74 80.62 50.85 82C49.27 84.44 49.32 84.56 52.61 86.75C54.48 87.99 57.91 89.52 60.25 90.16C62.59 90.79 70.8 91.34 78.5 91.37C90.26 91.42 93.7 91.07 100 89.18C104.12 87.94 107.17 86.6 106.76 86.21C106.35 85.82 106.41 85.05 106.89 84.5C107.37 83.95 108.06 82.15 108.41 80.5L109.05 77.5C88.9 77.5 82.23 77.01 80.5 76.33C78.85 75.69 75.47 74.66 73 74.04C70.52 73.42 66.34 72.3 63.7 71.55L58.9 70.19L55.68 74.85ZM43.72 82.22C44.7 83.17 45.84 83.96 46.25 83.97C46.66 83.99 47.01 83.44 47.03 82.75C47.04 82.06 45.9 80.37 44.5 79C42.11 76.66 41.95 76.63 41.94 78.5C41.94 79.6 42.74 81.28 43.72 82.22ZM111.25 81.51C111.39 81.79 111.78 81.34 112.12 80.51C112.46 79.68 112.6 79 112.42 79C112.24 79 111.85 79.45 111.55 80C111.25 80.55 111.11 81.23 111.25 81.51ZM58 95C72.34 106.62 76.72 109.99 77 109.99C77.27 109.99 81.21 106.84 85.75 103C90.29 99.15 94 95.66 94 95.25C94 94.84 87.59 94.5 79.75 94.5C71.91 94.5 63.81 94.61 61.75 94.75L58 95ZM48.62 100.75L47 104C54.62 112.91 58.78 117.43 61.17 119.78L65.5 124.07L74.82 112.5C58.42 99.32 53.35 95.37 52.99 95.22C52.62 95.06 51.85 95.51 51.28 96.22C50.72 96.92 49.52 98.96 48.62 100.75ZM79.7 111.84C79.26 112.21 79.94 114.65 81.2 117.27C82.47 119.89 83.84 122.03 84.25 122.02C84.66 122.01 88.49 119.22 92.75 115.82C97.01 112.41 100.61 109.49 100.75 109.32C100.89 109.14 99.87 106.75 98.5 104C97.12 101.25 95.82 99 95.6 99C95.38 99 91.89 101.74 87.85 105.09C83.81 108.45 80.14 111.48 79.7 111.84ZM29 142L57.5 141.98L56.74 148.24C56.33 151.68 55.99 157.76 56 169L53.25 168.92C51.74 168.88 51.06 168.65 51.75 168.42C52.63 168.13 53 165.31 53 150L32 150L32 158.5C32 165.56 32.3 167.16 33.75 167.97C35.17 168.76 34.89 168.94 29 169L29 142ZM42.5 147C48.5 147 53.21 146.57 53.5 146C53.82 145.36 50 145 43 145C36.33 145 32 145.39 32 146C32 146.6 36.17 147 42.5 147Z" />
</svg>